<svg xmlns="http://www.w3.org/2000/svg" viewBox="0 0 8 8" shape-rendering="crispEdges">
  <g fill="#FFC94D">
    <rect x="0" y="0" width="1" height="1"/><rect x="7" y="0" width="1" height="1"/>
    <rect x="0" y="1" width="2" height="1"/><rect x="6" y="1" width="2" height="1"/>
    <rect x="1" y="1" width="1" height="1" fill="#FF8FA3"/><rect x="6" y="1" width="1" height="1" fill="#FF8FA3"/>
    <rect x="0" y="2" width="8" height="1"/><rect x="0" y="3" width="8" height="1"/>
    <rect x="0" y="4" width="8" height="1"/><rect x="0" y="5" width="8" height="1"/>
    <rect x="1" y="6" width="6" height="1"/><rect x="2" y="7" width="4" height="1"/>
  </g>
  <rect x="1" y="3" width="1" height="1" fill="#2A2438"/><rect x="6" y="3" width="1" height="1" fill="#2A2438"/>
  <rect x="3" y="4" width="2" height="1" fill="#FF8FA3"/>
</svg>
